HIERARCHY
ROOT Hips
{
	OFFSET 0.000000 0.000000 0.000000
	CHANNELS 6 Xposition Yposition Zposition Xrotation Yrotation Zrotation
	JOINT LeftUpLeg_virtual
	{
		OFFSET 0.000000 0.000000 0.000000
		CHANNELS 3 Xrotation Yrotation Zrotation
		JOINT LeftUpLeg
		{
			OFFSET 11.394100 -6.187798 -0.413800
			CHANNELS 3 Xrotation Yrotation Zrotation
			JOINT LeftLeg
			{
				OFFSET 0.430247 -32.302673 3.732800
				CHANNELS 3 Xrotation Yrotation Zrotation
				JOINT LeftFoot
				{
					OFFSET -0.430247 -48.264931 -6.423300
					CHANNELS 3 Xrotation Yrotation Zrotation
					JOINT LeftToeBase
					{
						OFFSET 4.230900 -16.068199 23.438400
						CHANNELS 3 Xrotation Yrotation Zrotation
						JOINT LeftToe_End
						{
							OFFSET 4.510700 0.695400 19.974600
							CHANNELS 3 Xrotation Yrotation Zrotation
							End Site
							{
								OFFSET 0 0 0
							}
						}
					}
				}
			}
		}
	}
	JOINT RightUpLeg_virtual
	{
		OFFSET 0.000000 0.000000 0.000000
		CHANNELS 3 Xrotation Yrotation Zrotation
		JOINT RightUpLeg
		{
			OFFSET -11.333700 -6.187798 -0.413800
			CHANNELS 3 Xrotation Yrotation Zrotation
			JOINT RightLeg
			{
				OFFSET -0.430392 -32.302628 3.733000
				CHANNELS 3 Xrotation Yrotation Zrotation
				JOINT RightFoot
				{
					OFFSET 0.430392 -48.264973 -6.423500
					CHANNELS 3 Xrotation Yrotation Zrotation
					JOINT RightToeBase
					{
						OFFSET -4.230900 -16.068199 23.438400
						CHANNELS 3 Xrotation Yrotation Zrotation
						JOINT RightToe_End
						{
							OFFSET -4.510700 0.695400 19.974600
							CHANNELS 3 Xrotation Yrotation Zrotation
							End Site
							{
								OFFSET 0 0 0
							}
						}
					}
				}
			}
		}
	}
	JOINT Spine_virtual
	{
		OFFSET 0.000000 0.000000 0.000000
		CHANNELS 3 Xrotation Yrotation Zrotation
		JOINT Spine
		{
			OFFSET -0.002400 12.777504 0.315300
			CHANNELS 3 Xrotation Yrotation Zrotation
			JOINT Spine1
			{
				OFFSET -0.002067 5.816869 0.032633
				CHANNELS 3 Xrotation Yrotation Zrotation
				JOINT Spine1_split
				{
					OFFSET -0.002067 5.816869 0.032633
					CHANNELS 3 Xrotation Yrotation Zrotation
					JOINT Spine2
					{
						OFFSET -0.002067 5.816869 0.032633
						CHANNELS 3 Xrotation Yrotation Zrotation
						JOINT Neck_virtual
						{
							OFFSET 0.000000 0.000000 0.000000
							CHANNELS 3 Xrotation Yrotation Zrotation
							JOINT Neck
							{
								OFFSET -0.003700 21.199493 -0.826900
								CHANNELS 3 Xrotation Yrotation Zrotation
								JOINT Head
								{
									OFFSET 0.000000 20.442200 4.834800
									CHANNELS 3 Xrotation Yrotation Zrotation
									JOINT HeadTop_End
									{
										OFFSET 0.000000 34.668396 4.968400
										CHANNELS 3 Xrotation Yrotation Zrotation
										End Site
										{
											OFFSET 0 0 0
										}
									}
								}
							}
						}
						JOINT LeftShoulder_virtual
						{
							OFFSET 0.000000 0.000000 0.000000
							CHANNELS 3 Xrotation Yrotation Zrotation
							JOINT LeftShoulder
							{
								OFFSET 3.288150 8.794197 -1.372250
								CHANNELS 3 Xrotation Yrotation Zrotation
								JOINT LeftShoulder_split
								{
									OFFSET 3.288150 8.794197 -1.372250
									CHANNELS 3 Xrotation Yrotation Zrotation
									JOINT LeftArm
									{
										OFFSET 11.953299 -2.279007 -0.146200
										CHANNELS 3 Xrotation Yrotation Zrotation
										JOINT LeftForeArm
										{
											OFFSET 18.448900 0.000000 0.000000
											CHANNELS 3 Xrotation Yrotation Zrotation
											JOINT LeftHand
											{
												OFFSET 29.527798 0.000000 0.000000
												CHANNELS 3 Xrotation Yrotation Zrotation
												End Site
												{
													OFFSET 0 0 0
												}
											}
										}
									}
								}
							}
						}
						JOINT RightShoulder_virtual
						{
							OFFSET 0.000000 0.000000 0.000000
							CHANNELS 3 Xrotation Yrotation Zrotation
							JOINT RightShoulder
							{
								OFFSET -3.249400 8.794197 -1.372250
								CHANNELS 3 Xrotation Yrotation Zrotation
								JOINT RightShoulder_split
								{
									OFFSET -3.249400 8.794197 -1.372250
									CHANNELS 3 Xrotation Yrotation Zrotation
									JOINT RightArm
									{
										OFFSET -11.953299 -2.279007 -0.146200
										CHANNELS 3 Xrotation Yrotation Zrotation
										JOINT RightForeArm
										{
											OFFSET -18.448900 0.000000 0.000000
											CHANNELS 3 Xrotation Yrotation Zrotation
											JOINT RightHand
											{
												OFFSET -29.527802 0.000000 0.000000
												CHANNELS 3 Xrotation Yrotation Zrotation
												End Site
												{
													OFFSET 0 0 0
												}
											}
										}
									}
								}
							}
						}
					}
				}
			}
		}
	}
}
MOTION
Frames: 5
Frame Time: 0.03333333
7.092739 94.961502 -12.275690 0.000000 0.000000 0.000000 11.323987 8.774849 -0.075302 -13.007024 13.674188 10.175594 43.693004 3.908155 4.090337 -8.550456 0.221596 -13.878658 -37.092309 -0.000018 -0.000006 0.000000 0.000000 0.000000 11.323987 8.774849 -0.075302 -47.076809 -5.315736 -8.676033 43.468717 -1.797248 3.336697 -5.183403 2.092152 -1.193554 -2.391667 -0.000638 0.312267 0.000000 0.000000 0.000000 11.323987 8.774849 -0.075302 4.638183 -1.716311 -0.568599 0.605669 -2.990262 3.348217 0.000000 0.000000 0.000000 0.000000 0.000000 0.000000 0.632970 -3.010484 3.359031 -3.128719 0.442728 3.393671 -11.101221 2.725892 2.316671 0.000000 0.000000 0.000000 0.632970 -3.010484 3.359031 0.028837 0.485801 0.321203 0.000000 0.000000 0.000000 -37.094634 -12.101455 -49.437169 -179.999937 -66.162615 -179.999937 0.000000 0.000000 0.000000 0.632970 -3.010484 3.359031 -0.713611 -10.227975 7.452255 0.000000 0.000000 0.000000 -37.185281 7.525140 49.482251 -179.999950 57.602715 179.999950 0.000000 0.000000 0.000000 
7.005241 95.802505 -14.777792 0.000000 0.000000 0.000000 14.010353 9.380227 -1.554810 -29.469572 10.600916 14.821458 57.294997 -0.210424 0.722520 7.081937 -2.196950 -7.112548 -43.214791 3.320351 -6.509808 0.000000 0.000000 0.000000 14.010353 9.380227 -1.554810 -49.432026 -5.279981 -6.845556 47.697000 -2.713481 2.971688 -3.970914 2.114835 -1.325539 -7.885622 -0.016173 0.442736 0.000000 0.000000 0.000000 14.010353 9.380227 -1.554810 3.836045 -1.011670 1.069063 3.030180 -2.333154 2.316412 0.000000 0.000000 0.000000 0.000000 0.000000 0.000000 3.025688 -2.337050 2.305679 -3.373857 0.744375 1.970034 -20.406068 -0.736912 4.010717 0.000000 0.000000 0.000000 3.025688 -2.337050 2.305679 0.226638 -3.126610 5.972562 0.000000 0.000000 0.000000 -55.645507 -11.976969 -43.754506 -179.999896 -69.485263 -179.999882 0.000000 0.000000 0.000000 3.025688 -2.337050 2.305679 -1.787725 -12.486582 1.915338 0.000000 0.000000 0.000000 -57.494128 10.708993 49.479939 -179.999991 64.133489 179.999991 0.000000 0.000000 0.000000 
6.800636 95.142578 -16.765181 0.000000 0.000000 0.000000 15.064916 8.791248 -2.166042 -42.737088 8.084306 16.454783 69.745425 -3.631587 -0.605475 20.612249 -2.017256 4.182906 -48.148671 13.757078 -11.336955 0.000000 0.000000 0.000000 15.064916 8.791248 -2.166042 -49.701255 -4.894155 -4.925376 55.324792 -4.990156 2.401743 -7.337993 2.251352 -2.077257 -16.446925 -0.000000 -0.000001 0.000000 0.000000 0.000000 15.064916 8.791248 -2.166042 4.256502 -0.633782 1.929273 5.525780 -2.007906 1.460072 0.000000 0.000000 0.000000 0.000000 0.000000 0.000000 5.510000 -2.001089 1.443115 -3.821981 1.179405 0.529720 -28.309541 -3.166417 6.680834 0.000000 0.000000 0.000000 5.510000 -2.001089 1.443115 0.256372 -4.260466 17.532853 0.000000 0.000000 0.000000 -70.525070 -4.093746 -37.545102 179.999991 -75.168622 179.999991 0.000000 0.000000 0.000000 5.510000 -2.001089 1.443115 -4.311118 -16.380942 -8.167935 0.000000 0.000000 0.000000 -75.846669 5.206698 53.753500 179.999991 75.375632 -179.999991 0.000000 0.000000 0.000000 
6.348117 95.069496 -18.440493 0.000000 0.000000 0.000000 12.529434 8.756133 -0.753472 -53.406099 4.865271 17.214925 86.837024 0.872140 0.696544 20.868400 0.101485 9.631418 -13.250099 8.071865 -24.995619 0.000000 0.000000 0.000000 12.529434 8.756133 -0.753472 -43.375273 -5.124648 -4.679529 53.845014 -5.820365 1.624324 -12.925761 2.619836 -3.280600 -17.469056 0.000002 -0.000002 0.000000 0.000000 0.000000 12.529434 8.756133 -0.753472 11.209484 -1.015893 0.601049 4.641893 -2.434682 1.215398 0.000000 0.000000 0.000000 0.000000 0.000000 0.000000 4.643788 -2.376273 1.240035 -4.441267 1.638403 -0.538824 -29.274385 -4.578419 11.198304 0.000000 0.000000 0.000000 4.643788 -2.376273 1.240035 -0.549384 -2.146080 27.836928 0.000000 0.000000 0.000000 -72.667093 1.178746 -29.946674 -179.999650 -82.576010 -179.999650 0.000000 0.000000 0.000000 4.643788 -2.376273 1.240035 -8.667461 -18.781803 -25.118371 0.000000 0.000000 0.000000 -79.985784 -4.358372 54.700513 -179.999718 84.691825 179.999677 0.000000 0.000000 0.000000 
5.786741 95.197227 -19.217127 0.000000 0.000000 0.000000 10.816845 9.224850 1.808913 -59.373038 4.693008 16.715109 93.241050 4.566619 1.480221 21.304014 0.442245 13.626892 -2.457276 2.233053 -18.059751 0.000000 0.000000 0.000000 10.816845 9.224850 1.808913 -39.173119 -5.989256 -6.007265 49.761056 -5.547560 0.891254 -17.751983 3.547238 -6.074754 -7.861286 0.000001 -0.000000 0.000000 0.000000 0.000000 10.816845 9.224850 1.808913 16.310046 -1.924865 -3.527192 2.584060 -2.735305 1.265200 0.000000 0.000000 0.000000 0.000000 0.000000 0.000000 2.641296 -2.664699 1.362577 -5.197553 1.888820 -0.140763 -27.560418 -3.071810 13.080476 0.000000 0.000000 0.000000 2.641296 -2.664699 1.362577 -0.696177 -2.093742 30.730510 0.000000 0.000000 0.000000 -66.963270 1.059137 -26.541960 -179.999855 -85.929797 -179.999882 0.000000 0.000000 0.000000 2.641296 -2.664699 1.362577 -9.480940 -17.572714 -29.617838 0.000000 0.000000 0.000000 -74.873230 -4.107914 50.276172 -179.978189 89.507027 179.977943 0.000000 0.000000 0.000000 
